<svg width="68" height="98" viewBox="0 0 68 98" fill="none" xmlns="http://www.w3.org/2000/svg">
<path d="M5.66667 98C4.15556 98 2.83333 97.265 1.7 95.795C0.566667 94.325 0 92.61 0 90.65V14.7C0 12.74 0.566667 11.025 1.7 9.555C2.83333 8.085 4.15556 7.35 5.66667 7.35H11.8056V3.92C11.8056 2.80933 12.0952 1.87833 12.6744 1.127C13.2537 0.375668 13.9715 0 14.8278 0C15.7108 0 16.4511 0.375668 17.0485 1.127C17.6458 1.87833 17.9444 2.80933 17.9444 3.92V7.35H50.0556V3.92C50.0556 2.80933 50.3452 1.87833 50.9244 1.127C51.5037 0.375668 52.2215 0 53.0778 0C53.9608 0 54.7011 0.375668 55.2985 1.127C55.8958 1.87833 56.1944 2.80933 56.1944 3.92V7.35H62.3333C63.8444 7.35 65.1667 8.085 66.3 9.555C67.4333 11.025 68 12.74 68 14.7V90.65C68 92.61 67.4333 94.325 66.3 95.795C65.1667 97.265 63.8444 98 62.3333 98H5.66667ZM5.66667 90.65H62.3333V37.975H5.66667V90.65ZM5.66667 30.625H62.3333V14.7H5.66667V30.625ZM34 58.8C32.9296 58.8 32.0324 58.3304 31.3083 57.3912C30.5843 56.4521 30.2222 55.2883 30.2222 53.9C30.2222 52.5117 30.5843 51.3479 31.3083 50.4087C32.0324 49.4696 32.9296 49 34 49C35.0704 49 35.9676 49.4696 36.6917 50.4087C37.4157 51.3479 37.7778 52.5117 37.7778 53.9C37.7778 55.2883 37.4157 56.4521 36.6917 57.3912C35.9676 58.3304 35.0704 58.8 34 58.8ZM18.8889 58.8C17.8185 58.8 16.9213 58.3304 16.1972 57.3912C15.4731 56.4521 15.1111 55.2883 15.1111 53.9C15.1111 52.5117 15.4731 51.3479 16.1972 50.4087C16.9213 49.4696 17.8185 49 18.8889 49C19.9593 49 20.8565 49.4696 21.5806 50.4087C22.3046 51.3479 22.6667 52.5117 22.6667 53.9C22.6667 55.2883 22.3046 56.4521 21.5806 57.3912C20.8565 58.3304 19.9593 58.8 18.8889 58.8ZM49.1111 58.8C48.0407 58.8 47.1435 58.3304 46.4194 57.3912C45.6954 56.4521 45.3333 55.2883 45.3333 53.9C45.3333 52.5117 45.6954 51.3479 46.4194 50.4087C47.1435 49.4696 48.0407 49 49.1111 49C50.1815 49 51.0787 49.4696 51.8028 50.4087C52.5269 51.3479 52.8889 52.5117 52.8889 53.9C52.8889 55.2883 52.5269 56.4521 51.8028 57.3912C51.0787 58.3304 50.1815 58.8 49.1111 58.8ZM34 78.4C32.9296 78.4 32.0324 77.9304 31.3083 76.9912C30.5843 76.0521 30.2222 74.8883 30.2222 73.5C30.2222 72.1117 30.5843 70.9479 31.3083 70.0087C32.0324 69.0696 32.9296 68.6 34 68.6C35.0704 68.6 35.9676 69.0696 36.6917 70.0087C37.4157 70.9479 37.7778 72.1117 37.7778 73.5C37.7778 74.8883 37.4157 76.0521 36.6917 76.9912C35.9676 77.9304 35.0704 78.4 34 78.4ZM18.8889 78.4C17.8185 78.4 16.9213 77.9304 16.1972 76.9912C15.4731 76.0521 15.1111 74.8883 15.1111 73.5C15.1111 72.1117 15.4731 70.9479 16.1972 70.0087C16.9213 69.0696 17.8185 68.6 18.8889 68.6C19.9593 68.6 20.8565 69.0696 21.5806 70.0087C22.3046 70.9479 22.6667 72.1117 22.6667 73.5C22.6667 74.8883 22.3046 76.0521 21.5806 76.9912C20.8565 77.9304 19.9593 78.4 18.8889 78.4ZM49.1111 78.4C48.0407 78.4 47.1435 77.9304 46.4194 76.9912C45.6954 76.0521 45.3333 74.8883 45.3333 73.5C45.3333 72.1117 45.6954 70.9479 46.4194 70.0087C47.1435 69.0696 48.0407 68.6 49.1111 68.6C50.1815 68.6 51.0787 69.0696 51.8028 70.0087C52.5269 70.9479 52.8889 72.1117 52.8889 73.5C52.8889 74.8883 52.5269 76.0521 51.8028 76.9912C51.0787 77.9304 50.1815 78.4 49.1111 78.4Z" fill="black"/>
</svg>
