<svg width="78" height="90" viewBox="0 0 78 90" fill="none" xmlns="http://www.w3.org/2000/svg">
<path d="M61.5469 49.7636L67.1719 56.4511V83.3125C67.1719 85.0959 66.6094 86.6563 65.4844 87.9938C64.3594 89.3313 63.0469 90 61.5469 90H6.23438C4.73438 90 3.42188 89.3313 2.29688 87.9938C1.17188 86.6563 0.609375 85.0959 0.609375 83.3125V17.5521C0.609375 15.7688 1.17188 14.2084 2.29688 12.8709C3.42188 11.5334 4.73438 10.8646 6.23438 10.8646H31.1719C30.7969 11.9792 30.4969 13.0893 30.2719 14.1949C30.0469 15.3005 29.8781 16.4196 29.7656 17.5521H6.23438V83.3125H61.5469V49.7636ZM65.0156 31.373L77.3906 46.0855L73.3594 50.8782L60.8906 36.0542C59.5781 37.2431 58.125 38.1348 56.5312 38.7292C54.9375 39.3237 53.2969 39.6209 51.6094 39.6209C47.0781 39.6209 43.2266 37.7354 40.0547 33.9644C36.8828 30.1934 35.2969 25.6143 35.2969 20.2271C35.2969 14.84 36.8828 10.2609 40.0547 6.48988C43.2266 2.71888 47.0781 0.833374 51.6094 0.833374C56.1406 0.833374 59.9922 2.71888 63.1641 6.48988C66.3359 10.2609 67.9219 14.84 67.9219 20.2271C67.9219 22.1591 67.6719 24.091 67.1719 26.023C66.6719 27.9549 65.9531 29.7382 65.0156 31.373ZM51.6173 32.9334C54.612 32.9334 57.1406 31.7042 59.2031 29.2459C61.2656 26.7875 62.2969 23.7781 62.2969 20.2176C62.2969 16.6573 61.263 13.6511 59.1953 11.199C57.1274 8.74692 54.5962 7.52087 51.6014 7.52087C48.6067 7.52087 46.0781 8.75003 44.0156 11.2084C41.9531 13.6668 40.9219 16.6762 40.9219 20.2366C40.9219 23.797 41.9557 26.8032 44.0235 29.2552C46.0913 31.7073 48.6226 32.9334 51.6173 32.9334ZM6.23438 49.7636V83.3125V17.5521V46.3084V45.4167V49.7636Z" fill="black"/>
</svg>
