<svg width="25" height="19" viewBox="0 0 25 19" fill="none" xmlns="http://www.w3.org/2000/svg">
<path d="M1.875 18.9143C1.375 18.9143 0.9375 18.7456 0.5625 18.4081C0.1875 18.0706 0 17.6768 0 17.2268V2.60181C0 2.15181 0.1875 1.75806 0.5625 1.42056C0.9375 1.08306 1.375 0.914307 1.875 0.914307H23.125C23.625 0.914307 24.0625 1.08306 24.4375 1.42056C24.8125 1.75806 25 2.15181 25 2.60181V17.2268C25 17.6768 24.8125 18.0706 24.4375 18.4081C24.0625 18.7456 23.625 18.9143 23.125 18.9143H1.875ZM12.5 10.4206L1.875 4.14868V17.2268H23.125V4.14868L12.5 10.4206ZM12.5 8.73306L23 2.60181H2.03125L12.5 8.73306ZM1.875 4.14868V2.60181V17.2268V4.14868Z" fill="#FFFEFE"/>
</svg>
