<svg width="37" height="36" viewBox="0 0 37 36" fill="none" xmlns="http://www.w3.org/2000/svg">
<path d="M34.3 36L21.15 22.85C20.15 23.7167 18.984 24.3917 17.652 24.875C16.3201 25.3583 14.9027 25.6 13.4 25.6C9.7946 25.6 6.74325 24.35 4.24595 21.85C1.74865 19.35 0.5 16.3333 0.5 12.8C0.5 9.26667 1.75 6.25 4.25 3.75C6.75 1.25 9.775 0 13.325 0C16.875 0 19.8917 1.25 22.375 3.75C24.8583 6.25 26.1 9.26917 26.1 12.8075C26.1 14.2358 25.8667 15.6167 25.4 16.95C24.9333 18.2833 24.2333 19.5333 23.3 20.7L36.5 33.8L34.3 36ZM13.35 22.6C16.0583 22.6 18.3604 21.6417 20.2563 19.725C22.1521 17.8083 23.1 15.5 23.1 12.8C23.1 10.1 22.1521 7.79167 20.2563 5.875C18.3604 3.95833 16.0583 3 13.35 3C10.6139 3 8.2882 3.95833 6.3729 5.875C4.45763 7.79167 3.5 10.1 3.5 12.8C3.5 15.5 4.45763 17.8083 6.3729 19.725C8.2882 21.6417 10.6139 22.6 13.35 22.6Z" fill="black"/>
</svg>
