<svg width="77" height="90" viewBox="0 0 77 90" fill="none" xmlns="http://www.w3.org/2000/svg">
<path d="M61.0469 49.7636L66.6719 56.4511V83.3125C66.6719 85.0959 66.1094 86.6563 64.9844 87.9938C63.8594 89.3313 62.5469 90 61.0469 90H5.73438C4.23438 90 2.92188 89.3313 1.79688 87.9938C0.671875 86.6563 0.109375 85.0959 0.109375 83.3125V17.5521C0.109375 15.7688 0.671875 14.2084 1.79688 12.8709C2.92188 11.5334 4.23438 10.8646 5.73438 10.8646H30.6719C30.2969 11.9792 29.9969 13.0893 29.7719 14.1949C29.5469 15.3005 29.3781 16.4196 29.2656 17.5521H5.73438V83.3125H61.0469V49.7636ZM64.5156 31.373L76.8906 46.0855L72.8594 50.8782L60.3906 36.0542C59.0781 37.2431 57.625 38.1348 56.0312 38.7292C54.4375 39.3237 52.7969 39.6209 51.1094 39.6209C46.5781 39.6209 42.7266 37.7354 39.5547 33.9644C36.3828 30.1934 34.7969 25.6143 34.7969 20.2271C34.7969 14.84 36.3828 10.2609 39.5547 6.48988C42.7266 2.71888 46.5781 0.833374 51.1094 0.833374C55.6406 0.833374 59.4922 2.71888 62.6641 6.48988C65.8359 10.2609 67.4219 14.84 67.4219 20.2271C67.4219 22.1591 67.1719 24.091 66.6719 26.023C66.1719 27.9549 65.4531 29.7382 64.5156 31.373ZM51.1173 32.9334C54.112 32.9334 56.6406 31.7042 58.7031 29.2459C60.7656 26.7875 61.7969 23.7781 61.7969 20.2176C61.7969 16.6573 60.763 13.6511 58.6953 11.199C56.6274 8.74692 54.0962 7.52087 51.1014 7.52087C48.1067 7.52087 45.5781 8.75003 43.5156 11.2084C41.4531 13.6668 40.4219 16.6762 40.4219 20.2366C40.4219 23.797 41.4557 26.8032 43.5235 29.2552C45.5913 31.7073 48.1226 32.9334 51.1173 32.9334ZM5.73438 49.7636V83.3125V17.5521V46.3084V45.4167V49.7636Z" fill="black"/>
</svg>
